# xmcd CD database file
#
# Track frame offsets:
#        150
#        33259
#        55452
#        74806
#        91013
#        108219
#        127139
#        144492
#        165120
#        191252
#        212070
#        232207
#        244516
#        261501
#        278245
#        298748
#        312486
#        327941
#
# Disc length: 4659 seconds
#
# Revision: 0
# Processed by: cddbd v1.5.2PL0 Copyright (c) Steve Scherf et al.
# Submitted via: CUERipper 2.1.7
#
DISCID=14123112
DTITLE=Perfume - Perfume The Best “P Cubed”3
DYEAR=1900
DGENRE=
TTITLE0=Party Maker
TTITLE1=Sweet Refrain
TTITLE2=Cling Cling
TTITLE3=Hold Your Hand
TTITLE4=DISPLAY
TTITLE5=Relax In The City
TTITLE6=Pick Me Up
TTITLE7=STAR TRAIN
TTITLE8=STORY
TTITLE9=FLASH
TTITLE10=TOKYO GIRL
TTITLE11=If you wanna
TTITLE12=Everyday
TTITLE13=無限未来
TTITLE14=FUSION
TTITLE15=Future Pop
TTITLE16=Let Me Know
TTITLE17=ナナナナナイロ
EXTD=
EXTT0=
EXTT1=
EXTT2=
EXTT3=
EXTT4=
EXTT5=
EXTT6=
EXTT7=
EXTT8=
EXTT9=
EXTT10=
EXTT11=
EXTT12=
EXTT13=
EXTT14=
EXTT15=
EXTT16=
EXTT17=
PLAYORDER=
